<svg xmlns="http://www.w3.org/2000/svg" width="30.749" height="35.141" viewBox="0 0 30.749 35.141"><defs><style>.a{fill:#cdcdcd;}</style></defs><path class="a" d="M15.374,35.141a4.392,4.392,0,0,0,4.391-4.393H10.983A4.392,4.392,0,0,0,15.374,35.141ZM30.157,24.866c-1.326-1.425-3.807-3.568-3.807-10.59A10.839,10.839,0,0,0,17.569,3.627V2.2a2.195,2.195,0,1,0-4.39,0v1.43A10.839,10.839,0,0,0,4.4,14.276C4.4,21.3,1.916,23.441.59,24.866A2.144,2.144,0,0,0,0,26.356a2.2,2.2,0,0,0,2.2,2.2H28.545a2.2,2.2,0,0,0,2.2-2.2A2.143,2.143,0,0,0,30.157,24.866Z" transform="translate(0.001)"/></svg>