<svg xmlns="http://www.w3.org/2000/svg" width="34.571" height="33.708" viewBox="0 0 34.571 33.708"><defs><style>.a{fill:#cdcdcd;}</style></defs><path class="a" d="M0,30.548a3.466,3.466,0,0,0,3.7,3.16H30.867a3.466,3.466,0,0,0,3.7-3.16V12.64H0Zm24.694-12.9a.869.869,0,0,1,.926-.79h3.087a.869.869,0,0,1,.926.79v2.633a.869.869,0,0,1-.926.79H25.62a.869.869,0,0,1-.926-.79Zm0,8.427a.869.869,0,0,1,.926-.79h3.087a.869.869,0,0,1,.926.79V28.7a.869.869,0,0,1-.926.79H25.62a.869.869,0,0,1-.926-.79Zm-9.878-8.427a.869.869,0,0,1,.926-.79h3.087a.869.869,0,0,1,.926.79v2.633a.869.869,0,0,1-.926.79H15.742a.869.869,0,0,1-.926-.79Zm0,8.427a.869.869,0,0,1,.926-.79h3.087a.869.869,0,0,1,.926.79V28.7a.869.869,0,0,1-.926.79H15.742a.869.869,0,0,1-.926-.79ZM4.939,17.644a.869.869,0,0,1,.926-.79H8.952a.869.869,0,0,1,.926.79v2.633a.869.869,0,0,1-.926.79H5.865a.869.869,0,0,1-.926-.79Zm0,8.427a.869.869,0,0,1,.926-.79H8.952a.869.869,0,0,1,.926.79V28.7a.869.869,0,0,1-.926.79H5.865a.869.869,0,0,1-.926-.79ZM30.867,4.213h-3.7V1.053A1.158,1.158,0,0,0,25.929,0H23.459a1.158,1.158,0,0,0-1.235,1.053v3.16H12.347V1.053A1.158,1.158,0,0,0,11.112,0H8.643A1.158,1.158,0,0,0,7.408,1.053v3.16H3.7A3.466,3.466,0,0,0,0,7.374v3.16H34.571V7.374A3.466,3.466,0,0,0,30.867,4.213Z"/></svg>