<svg xmlns="http://www.w3.org/2000/svg" width="28.771" height="35.486" viewBox="0 0 28.771 35.486"><defs><style>.a{fill:#cdcdcd;}</style></defs><path class="a" d="M25.174,4.436H19.18A4.63,4.63,0,0,0,14.385,0a4.63,4.63,0,0,0-4.8,4.436H3.6A3.47,3.47,0,0,0,0,7.762v24.4a3.47,3.47,0,0,0,3.6,3.327H25.174a3.47,3.47,0,0,0,3.6-3.327V7.762A3.47,3.47,0,0,0,25.174,4.436ZM7.193,29.387a1.668,1.668,0,1,1,0-3.327,1.668,1.668,0,1,1,0,3.327Zm0-6.654a1.668,1.668,0,1,1,0-3.327,1.668,1.668,0,1,1,0,3.327Zm0-6.654a1.668,1.668,0,1,1,0-3.327,1.668,1.668,0,1,1,0,3.327ZM14.385,2.772a1.731,1.731,0,0,1,1.8,1.663,1.8,1.8,0,0,1-3.6,0A1.731,1.731,0,0,1,14.385,2.772Zm9.59,25.505a.58.58,0,0,1-.6.554H12.587a.58.58,0,0,1-.6-.554V27.169a.58.58,0,0,1,.6-.554H23.376a.58.58,0,0,1,.6.554Zm0-6.654a.58.58,0,0,1-.6.554H12.587a.58.58,0,0,1-.6-.554V20.515a.58.58,0,0,1,.6-.554H23.376a.58.58,0,0,1,.6.554Zm0-6.654a.58.58,0,0,1-.6.554H12.587a.58.58,0,0,1-.6-.554V13.862a.58.58,0,0,1,.6-.554H23.376a.58.58,0,0,1,.6.554Z"/></svg>