<svg xmlns="http://www.w3.org/2000/svg" width="44.445" height="35.556" viewBox="0 0 44.445 35.556"><defs><style>.a{fill:#cdcdcd;}</style></defs><path class="a" d="M22.224,27.775A9.963,9.963,0,0,1,12.3,18.531L5.015,12.9a23.145,23.145,0,0,0-2.55,3.86,2.247,2.247,0,0,0,0,2.027,22.274,22.274,0,0,0,19.759,12.32,21.571,21.571,0,0,0,5.409-.726l-3.6-2.788a10.009,10.009,0,0,1-1.806.181ZM44.017,31.81,36.34,25.876a23,23,0,0,0,5.642-7.088,2.247,2.247,0,0,0,0-2.027A22.274,22.274,0,0,0,22.224,4.441,21.4,21.4,0,0,0,11.993,7.059L3.158.231a1.111,1.111,0,0,0-1.56.2L.235,2.181a1.111,1.111,0,0,0,.2,1.559L41.289,35.319a1.111,1.111,0,0,0,1.56-.2l1.364-1.755A1.111,1.111,0,0,0,44.017,31.81ZM31.259,21.949l-2.729-2.11a6.58,6.58,0,0,0-8.063-8.467,3.309,3.309,0,0,1,.647,1.959,3.239,3.239,0,0,1-.107.694l-5.112-3.951a9.883,9.883,0,0,1,6.33-2.3,9.995,9.995,0,0,1,10,10,9.763,9.763,0,0,1-.965,4.174Z" transform="translate(-0.001 0.003)"/></svg>