<svg xmlns="http://www.w3.org/2000/svg" width="44.372" height="33.708" viewBox="0 0 44.372 33.708"><defs><style>.a{fill:#cdcdcd;}</style></defs><path class="a" d="M21.583,40.795,7.381,52.221V64.554a1.218,1.218,0,0,0,1.232,1.2l8.632-.022a1.218,1.218,0,0,0,1.226-1.2v-7.2a1.218,1.218,0,0,1,1.232-1.2h4.93a1.218,1.218,0,0,1,1.232,1.2v7.2a1.19,1.19,0,0,0,.36.854,1.247,1.247,0,0,0,.873.354l8.629.023a1.218,1.218,0,0,0,1.232-1.2V52.213l-14.2-11.418a.956.956,0,0,0-1.179,0Zm22.433,7.766-6.44-5.185V32.953a.914.914,0,0,0-.924-.9H32.338a.914.914,0,0,0-.924.9v5.464l-6.9-5.543a3.765,3.765,0,0,0-4.7,0L.32,48.561A.889.889,0,0,0,.2,49.833l1.964,2.333a.939.939,0,0,0,1.3.123L21.583,37.709a.956.956,0,0,1,1.179,0l18.12,14.579a.939.939,0,0,0,1.3-.12l1.964-2.333a.889.889,0,0,0-.131-1.274Z" transform="translate(0.015 -32.05)"/></svg>