<svg xmlns="http://www.w3.org/2000/svg" width="42.524" height="37.799" viewBox="0 0 42.524 37.799"><defs><style>.a{fill:#cdcdcd;}</style></defs><path class="a" d="M40.162,7.087h-9.45V2.362A2.36,2.36,0,0,0,28.35,0H14.175a2.36,2.36,0,0,0-2.362,2.362V7.087H2.362A2.36,2.36,0,0,0,0,9.45V36.618A1.185,1.185,0,0,0,1.181,37.8H41.343a1.185,1.185,0,0,0,1.181-1.181V9.45A2.36,2.36,0,0,0,40.162,7.087Zm-28.35,25.1a.889.889,0,0,1-.886.886H7.973a.889.889,0,0,1-.886-.886V29.235a.889.889,0,0,1,.886-.886h2.953a.889.889,0,0,1,.886.886Zm0-9.45a.889.889,0,0,1-.886.886H7.973a.889.889,0,0,1-.886-.886V19.786a.889.889,0,0,1,.886-.886h2.953a.889.889,0,0,1,.886.886Zm11.812,9.45a.889.889,0,0,1-.886.886H19.786a.889.889,0,0,1-.886-.886V29.235a.889.889,0,0,1,.886-.886h2.953a.889.889,0,0,1,.886.886Zm0-9.45a.889.889,0,0,1-.886.886H19.786a.889.889,0,0,1-.886-.886V19.786a.889.889,0,0,1,.886-.886h2.953a.889.889,0,0,1,.886.886Zm1.181-12.551a.444.444,0,0,1-.443.443h-1.92v1.92a.444.444,0,0,1-.443.443H20.524a.444.444,0,0,1-.443-.443v-1.92h-1.92a.444.444,0,0,1-.443-.443V8.712a.444.444,0,0,1,.443-.443h1.92V6.349a.444.444,0,0,1,.443-.443H22a.444.444,0,0,1,.443.443v1.92h1.92a.444.444,0,0,1,.443.443Zm10.631,22a.889.889,0,0,1-.886.886H31.6a.889.889,0,0,1-.886-.886V29.235a.889.889,0,0,1,.886-.886h2.953a.889.889,0,0,1,.886.886Zm0-9.45a.889.889,0,0,1-.886.886H31.6a.889.889,0,0,1-.886-.886V19.786A.889.889,0,0,1,31.6,18.9h2.953a.889.889,0,0,1,.886.886Z"/></svg>