<svg xmlns="http://www.w3.org/2000/svg" width="39.168" height="39.168" viewBox="0 0 39.168 39.168"><defs><style>.a{fill:#cdcdcd;}</style></defs><path class="a" d="M27.584,8A19.584,19.584,0,1,0,47.168,27.584,19.587,19.587,0,0,0,27.584,8Zm0,8.686A3.317,3.317,0,1,1,24.267,20,3.317,3.317,0,0,1,27.584,16.686Zm4.422,20.058a.948.948,0,0,1-.948.948H24.109a.948.948,0,0,1-.948-.948v-1.9a.948.948,0,0,1,.948-.948h.948V28.847h-.948a.948.948,0,0,1-.948-.948V26a.948.948,0,0,1,.948-.948h5.054a.948.948,0,0,1,.948.948v7.9h.948a.948.948,0,0,1,.948.948Z" transform="translate(-8 -8)"/></svg>