<svg xmlns="http://www.w3.org/2000/svg" width="40.452" height="35.957" viewBox="0 0 40.452 35.957"><defs><style>.a{fill:#cdcdcd;}</style></defs><path class="a" d="M20.226,0a8.849,8.849,0,0,0-8.849,8.849c0,3.951,5.783,11.152,8,13.766a1.108,1.108,0,0,0,1.7,0c2.216-2.614,8-9.815,8-13.766A8.849,8.849,0,0,0,20.226,0Zm0,11.8a2.95,2.95,0,1,1,2.95-2.95A2.949,2.949,0,0,1,20.226,11.8ZM1.413,15.166A2.248,2.248,0,0,0,0,17.252v17.58a1.124,1.124,0,0,0,1.541,1.044l9.7-4.413V15.094a21.268,21.268,0,0,1-1.492-3.26ZM20.226,25.259a3.356,3.356,0,0,1-2.564-1.191c-1.381-1.629-2.849-3.485-4.178-5.388V31.462l13.484,4.495V18.681c-1.329,1.9-2.8,3.759-4.178,5.388A3.357,3.357,0,0,1,20.226,25.259ZM38.911,11.318l-9.7,4.413V35.957l9.824-3.929a2.247,2.247,0,0,0,1.413-2.087V12.362A1.124,1.124,0,0,0,38.911,11.318Z"/></svg>