<svg xmlns="http://www.w3.org/2000/svg" width="35.556" height="35.556" viewBox="0 0 35.556 35.556"><defs><style>.a{fill:#cdcdcd;}</style></defs><path class="a" d="M34.254,1.7,27.032.032A1.677,1.677,0,0,0,25.122,1L21.789,8.775a1.662,1.662,0,0,0,.479,1.944l4.208,3.444A25.737,25.737,0,0,1,14.171,26.469l-3.444-4.208a1.665,1.665,0,0,0-1.944-.479L1,25.115a1.687,1.687,0,0,0-.972,1.917L1.7,34.254a1.666,1.666,0,0,0,1.625,1.292A32.219,32.219,0,0,0,35.546,3.323,1.665,1.665,0,0,0,34.254,1.7Z" transform="translate(0.01 0.011)"/></svg>