<svg xmlns="http://www.w3.org/2000/svg" width="39.351" height="34.979" viewBox="0 0 39.351 34.979"><defs><style>.a{fill:#cdcdcd;}</style></defs><path class="a" d="M38.837,12.123,29,21.413a1.641,1.641,0,0,1-2.765-1.192V15.3c-9.877.066-14.044,2.4-11.257,11.706a1.094,1.094,0,0,1-1.708,1.184A13.15,13.15,0,0,1,8.2,18.4c0-9.833,8.034-11.785,18.036-11.84V1.64A1.641,1.641,0,0,1,29,.448l9.838,9.29A1.64,1.64,0,0,1,38.837,12.123ZM26.234,25.9v4.705H4.372V8.744H7.851a.819.819,0,0,0,.591-.252,13.318,13.318,0,0,1,3.485-2.574.819.819,0,0,0-.379-1.546H3.279A3.279,3.279,0,0,0,0,7.651V31.7a3.279,3.279,0,0,0,3.279,3.279H27.327A3.279,3.279,0,0,0,30.606,31.7V25.632a.82.82,0,0,0-1.094-.772,4.907,4.907,0,0,1-2.336.231.821.821,0,0,0-.943.81Z" transform="translate(0 0)"/></svg>