<svg xmlns="http://www.w3.org/2000/svg" width="37.799" height="37.799" viewBox="0 0 37.799 37.799"><defs><style>.a{fill:#cdcdcd;}</style></defs><path class="a" d="M27.161,24.345a4.721,4.721,0,0,1-1.174,1.008v1.694c4.911.69,8.269,2.071,8.269,3.666,0,2.283-6.875,4.134-15.356,4.134S3.544,33,3.544,30.712c0-1.595,3.358-2.975,8.269-3.666V25.353a4.721,4.721,0,0,1-1.174-1.008C4.346,25.5,0,27.91,0,30.712,0,34.626,8.462,37.8,18.9,37.8s18.9-3.173,18.9-7.087C37.8,27.91,33.453,25.5,27.161,24.345ZM18.9,9.45a4.725,4.725,0,1,0-4.725-4.725A4.725,4.725,0,0,0,18.9,9.45ZM14.175,23.625v7.087a2.363,2.363,0,0,0,2.362,2.362h4.725a2.363,2.363,0,0,0,2.362-2.362V23.625a2.363,2.363,0,0,0,2.362-2.362V14.175a3.544,3.544,0,0,0-3.544-3.544h-.871a6.342,6.342,0,0,1-5.345,0h-.871a3.544,3.544,0,0,0-3.544,3.544v7.087A2.363,2.363,0,0,0,14.175,23.625Z"/></svg>