<svg xmlns="http://www.w3.org/2000/svg" width="31.098" height="35.54" viewBox="0 0 31.098 35.54"><defs><style>.a{fill:#cdcdcd;}</style></defs><path class="a" d="M2.221,32.208A3.332,3.332,0,0,0,5.553,35.54H25.545a3.332,3.332,0,0,0,3.332-3.332V8.885H2.221ZM21.1,14.438a1.111,1.111,0,1,1,2.221,0V29.987a1.111,1.111,0,1,1-2.221,0Zm-6.664,0a1.111,1.111,0,1,1,2.221,0V29.987a1.111,1.111,0,1,1-2.221,0Zm-6.664,0a1.111,1.111,0,1,1,2.221,0V29.987a1.111,1.111,0,1,1-2.221,0ZM29.987,2.221h-8.33L21,.923A1.666,1.666,0,0,0,19.513,0H11.578a1.647,1.647,0,0,0-1.485.923l-.653,1.3H1.111A1.111,1.111,0,0,0,0,3.332V5.553A1.111,1.111,0,0,0,1.111,6.664H29.987A1.111,1.111,0,0,0,31.1,5.553V3.332A1.111,1.111,0,0,0,29.987,2.221Z" transform="translate(0 0)"/></svg>