<svg xmlns="http://www.w3.org/2000/svg" width="39.168" height="39.168" viewBox="0 0 39.168 39.168"><defs><style>.a{fill:#cdcdcd;}</style></defs><path class="a" d="M19.584,8A19.584,19.584,0,1,0,39.168,27.584,19.58,19.58,0,0,0,19.584,8Zm0,7.581a6.949,6.949,0,1,1-6.949,6.949A6.949,6.949,0,0,1,19.584,15.581Zm0,27.165A15.132,15.132,0,0,1,8.015,37.36a8.8,8.8,0,0,1,7.778-4.722,1.932,1.932,0,0,1,.561.087,10.455,10.455,0,0,0,3.23.545,10.416,10.416,0,0,0,3.23-.545,1.932,1.932,0,0,1,.561-.087,8.8,8.8,0,0,1,7.778,4.722A15.132,15.132,0,0,1,19.584,42.745Z" transform="translate(0 -8)"/></svg>